# xmcd
#
# Track frame offsets:
#	150
#	46431
#	53777
#	72490
#	98455
#	130510
#	145218
#	170075
#	186735
#	206255
# Disc length: 3009 seconds
# Revision: 5
# Processed by: cddbd v1.5.2PL0 Copyright (c) Steve Scherf et al.
#
# Submitted via: libkcddb 0.31
#
DISCID=920bbf0a
DTITLE=Eagles - Long Road out of Eden [CD 2)
DYEAR=2007
DGENRE=Rock
TTITLE0=Long Road out of Eden
TTITLE1=I Dreamed There Was No War
TTITLE2=Somebody
TTITLE3=Frail Grasp on the Big Picture
TTITLE4=Last Good Time in Town
TTITLE5=I Love To Watch a Woman Dance
TTITLE6=Business As Usual
TTITLE7=Center of the Universe
TTITLE8=It's Your World Now
TTITLE9=Hole in the World
EXTD=Long Road out of Eden - Disc 1 of 2\n© 2007 Eagles Recording Co.\n\nOriginally Released October 30, 2007\nERC/Universal 1749406\n YEAR: 2007
EXTT0=
EXTT1=
EXTT2=
EXTT3=
EXTT4=
EXTT5=
EXTT6=
EXTT7=
EXTT8=
EXTT9=
PLAYORDER=
